<svg xmlns="http://www.w3.org/2000/svg" viewBox="0 0 60 60">
  <!-- Royal blue shield -->
  <path d="M30 3 L54 10 L54 30 Q54 48 30 57 Q6 48 6 30 L6 10 Z"
        fill="#1d4ed8" stroke="#f5b50f" stroke-width="2" stroke-linejoin="round"/>
  <!-- Lyre strings -->
  <g stroke="#f5b50f" stroke-width="1">
    <line x1="24" y1="22" x2="24" y2="42"/>
    <line x1="27" y1="22" x2="27" y2="42"/>
    <line x1="30" y1="22" x2="30" y2="42"/>
    <line x1="33" y1="22" x2="33" y2="42"/>
    <line x1="36" y1="22" x2="36" y2="42"/>
  </g>
  <!-- Lyre arms + crossbar + base -->
  <g stroke="#f5b50f" stroke-width="2.2" stroke-linecap="round" fill="none">
    <path d="M22 42 Q16 32 20 22 Q18 18 22 17 L26 21"/>
    <path d="M38 42 Q44 32 40 22 Q42 18 38 17 L34 21"/>
  </g>
  <rect x="22" y="20" width="16" height="2.5" rx="1.2" fill="#f5b50f"/>
  <rect x="22" y="41" width="16" height="3" rx="1.5" fill="#f5b50f"/>
  <!-- Star -->
  <path d="M30 7.5 L31.4 11 L35 11 L32.1 13.2 L33.3 16.7 L30 14.6 L26.7 16.7 L27.9 13.2 L25 11 L28.6 11 Z"
        fill="#f5b50f"/>
</svg>
